<?xml version="1.0" encoding="UTF-8"?>
<svg id="_图层_1" xmlns="http://www.w3.org/2000/svg" version="1.1" viewBox="0 0 1106.21 293.01">
  <defs>
    <style>
      .st0 { fill: #1c242f; }
      .st1 { fill: #0b70a6; }
    </style>
  </defs>
  <path class="st0" d="M269.15,226.87c-1.08-3.08-4.84-5.24-7.23-7.89-2.98,3.85-6.12,4.6-10.93,3.34-2.66-.7-5.85-4.18-5.37-8.67,26.04-23.63,39.82-57.44,37.2-92.88s-24.01-69.78-53.41-87.97c-34.4-21.29-74.76-22.65-109.87-6.45-33.46,15.43-55.94,45.75-63.12,79.32-8.26,38.6,4.08,77.45,30.96,104.21,2.93,2.91,4.59,3.95,3.49,8.12-.76,2.89-3.67,4.53-7.1,4.99-4.23.56-5.84-.74-8.45-3.42-37.02-38.16-47.22-94.64-25.37-142.99C68.15,36.31,104.33,8.54,148.19,1.62c39.51-6.24,79.02,5.72,108.1,32.51,49.23,45.34,56.49,120.46,15.34,173.68,2.61,2.47,4.63,5.84,8.03,7.35,2.64.69,6.63-.8,9.24,1.81l56.37,56.38c4.51,4.51,2.26,12.68-1.7,16.18s-11.88,5.29-16.4.85l-54.84-53.83c-2.76-2.71-3.49-4.97-3.18-9.65v-.03h0Z"/>
  <path class="st1" d="M1085.87,198.99l-.28-83.88-35.47,65.3c-3.87.32-7.03.58-10.24-.22l-35.68-65.85-.12,84.53-20.15.06-.05-121.72,21.73-.17,39.56,73.76,39.32-73.35,21.63-.4.09,121.72-20.35.23h.01Z"/>
  <path class="st0" d="M687.68,198.87h-16.88l-.35-55.75c-.04-5.68-3.07-11.3-8-13.78-5.91-2.97-12.76-2.72-18.89.93-4.36,2.59-9.6,8.48-9.67,15.22l-.56,53.41-17.1.13-.09-85.43,15.64-.09c.65,3.22-.65,6.38,1.39,10.48,7.84-10.05,18.21-14.06,29.91-12.43,9.39,1.31,17.23,5.96,21.44,15.45,5.88-11.56,17.22-16.21,29.67-15.7,15.46.63,27.9,11.33,28.02,27.49l.46,60.06-17.36.14-.33-54.39c-.03-5.71-2.44-11.65-7.23-14.61-6.17-3.81-13.62-3.43-20.08.36-4.8,2.82-9.49,9.23-9.55,16.36l-.44,52.13v.02h0Z"/>
  <polygon class="st0" points="440.95 131.61 441.15 148.69 385.8 148.77 385.67 199.03 367.27 198.81 367.26 77.04 448.16 77.01 448.14 94.52 385.87 94.56 385.67 131.45 440.95 131.61"/>
  <path class="st0" d="M946.3,186.98c-11.15,17.62-39.92,18.67-52.35,5.72-9.6-10.01-9.17-26.73.95-36.19,11.52-10.77,33.56-11.15,50.26-10.8,1.61-9.25-4.52-16.15-13.52-17.8-12.39-2.27-24.27,1.1-35.89,7.74l-.15-16.8c13.49-7.13,29.06-9.32,44.01-5.84,13.29,3.09,22.74,13.62,22.83,27.3l.27,39.33c.01,2.14,1.12,4.16,2.29,4.76,1.81.91,3.66.99,6.18.53l-.16,14.6c-5.17,1.99-10.74,1.86-15.8-.04-4.91-2.3-7.06-6.29-8.94-12.49l.02-.02ZM941.28,177.45c4.51-5.58,4.61-12.31,3.95-18.86-15.35.14-38.33.7-40.04,13.76-.64,4.86,1.05,9.99,6.08,12.21,9.96,4.4,22.85,1.74,30.01-7.11h0Z"/>
  <path class="st0" d="M543.41,156.37c0,25.19-20.42,45.61-45.61,45.61s-45.61-20.42-45.61-45.61,20.42-45.61,45.61-45.61,45.61,20.42,45.61,45.61ZM526.39,156.39c0-15.79-12.8-28.6-28.6-28.6s-28.6,12.8-28.6,28.6,12.8,28.6,28.6,28.6,28.6-12.8,28.6-28.6Z"/>
  <path class="st0" d="M836.48,113.53l.08,85.31-16.57.15-.69-11.97c-6.6,10.73-17.28,14.7-28.94,14.29-20.05-.72-31.49-14.14-31.51-33.7l-.05-53.97,16.98-.19.29,51.15c.04,7.03,2.5,13.89,8.53,17.57,7.06,4.32,15.95,3.96,23.14-.23,6.28-3.66,11.36-10.92,11.4-19.36l.25-48.97,17.09-.08h0Z"/>
  <path class="st1" d="M186.16,274h-33.89c2.82-2.58,4.64-6.23,4.86-10.58l3.39-64.93,7.76-164c.33.29.72.59,1.18.61l9.01,180.52,2.21,46.97c.24,5,2,9.14,5.47,11.4h.01Z"/>
  <rect class="st0" y="273.93" width="295.21" height="9.17"/>
  <path class="st1" d="M238.3,274h-30.36c2.92-2.87,4.12-6.43,4.45-11.54l10.38-162.23,10.17,164.16c.3,4.82,2.06,8.12,5.36,9.62h0Z"/>
  <path class="st0" d="M572.64,198.99l-17.27-.2-.03-85.14,15.87-.06,1.21,13.47c5.89-12.06,19.29-17.97,32.36-14.02l.18,17.47c-9.16-2.73-18.81-1.35-25.47,5.52-4.39,4.53-6.59,11.12-6.62,17.58l-.24,45.37h.01Z"/>
  <rect class="st0" x="856.05" y="76.98" width="17.34" height="122.07"/>
  <path class="st1" d="M130.22,273.99h-29.21c3.14-3.27,4.66-7.59,4.71-13.19l9.7-131.7,6.59,78.52,3.77,55c.33,4.88,1.52,8.64,4.44,11.37h0Z"/>
  <path class="st1" d="M78.27,273.99h-20.21c.71-.58,2.71-1.74,3.07-3.5l7.23-35.25,6.89,35.14c.35,1.78,2.33,3.02,3.03,3.6h-.01Z"/>
</svg>
